<?xml version="1.0" encoding="utf-8"?>
<!-- Generator: Adobe Illustrator 22.0.1, SVG Export Plug-In . SVG Version: 6.00 Build 0)  -->
<svg version="1.1" xmlns="http://www.w3.org/2000/svg" xmlns:xlink="http://www.w3.org/1999/xlink" x="0px" y="0px"
	 viewBox="0 0 856.5 481.8" style="enable-background:new 0 0 856.5 481.8;" xml:space="preserve">
<style type="text/css">
	.st0{display:none;}
	.st1{display:inline;fill:#1A1A1A;}
	.st2{fill:#E6E6E6;}
</style>
<g id="Layer_1" class="st0">
	<rect x="-11.7" y="-6.9" class="st1" width="880" height="495.5"/>
</g>
<g id="Layer_3">
	<circle class="st2" cx="149.8" cy="245.4" r="9.2"/>
	<circle class="st2" cx="169.8" cy="200.4" r="9.2"/>
	<circle class="st2" cx="209.8" cy="181.4" r="9.2"/>
	<circle class="st2" cx="250.8" cy="193.4" r="7.5"/>
	<circle class="st2" cx="271.8" cy="221.4" r="5.5"/>
</g>
<g id="Layer_2">
	<g>
		<path class="st2" d="M349.6,201.8h-17c-2.5,0-3.7-1.2-3.7-3.7v-2.5c0-2.4,1.2-3.7,3.7-3.7H378c2.4,0,3.7,1.3,3.7,3.7v2.5
			c0,2.4-1.2,3.7-3.7,3.7h-17v49.6c0,2.5-1.2,3.7-3.7,3.7h-4c-2.4,0-3.7-1.2-3.7-3.7V201.8z"/>
		<path class="st2" d="M410.2,194.9c0.7-2,2-3,4.2-3h5.7c2.1,0,3.6,1,4.2,3l19.8,55.9c0.9,2.6-0.3,4.3-3,4.3h-4.1
			c-2.1,0-3.6-1-4.2-3l-4.5-13.2h-22.2l-4.4,13.1c-0.6,2.1-2,3.1-4.2,3.1h-4.1c-2.8,0-3.9-1.7-3-4.3L410.2,194.9z M425.4,229.6
			l-5.6-16.9c-1.1-3.6-2.5-9.8-2.5-9.8h-0.2c0,0-1.4,6.2-2.5,9.8l-5.7,16.9H425.4z"/>
		<path class="st2" d="M493.4,190.8c10.3,0,17.3,3.9,20.7,6.3c1.9,1.4,2,3.2,0.7,5.2l-1.6,2.6c-1.2,2-2.9,2.2-5.1,0.9
			c-2.8-1.8-7.8-4.5-14.3-4.5c-13.8,0-21.2,10.1-21.2,21.7c0,11.8,7.7,22.6,21.3,22.6c7.1,0,12.6-3.4,15.5-5.5
			c2-1.4,3.7-1.4,5.2,0.6l1.8,2.4c1.3,1.8,1.2,3.7-0.5,5.2c-3.6,2.9-11.1,7.8-22.4,7.8c-19.9,0-32.7-14.3-32.7-33
			C460.8,204.9,474.2,190.8,493.4,190.8z"/>
		<path class="st2" d="M553.7,201.8h-17c-2.5,0-3.7-1.2-3.7-3.7v-2.5c0-2.4,1.2-3.7,3.7-3.7h45.4c2.4,0,3.7,1.3,3.7,3.7v2.5
			c0,2.4-1.2,3.7-3.7,3.7h-17v49.6c0,2.5-1.2,3.7-3.7,3.7h-4c-2.4,0-3.7-1.2-3.7-3.7V201.8z"/>
		<path class="st2" d="M606.1,195.6c0-2.4,1.2-3.7,3.7-3.7h4.1c2.4,0,3.7,1.3,3.7,3.7v55.8c0,2.5-1.2,3.7-3.7,3.7h-4.1
			c-2.4,0-3.7-1.2-3.7-3.7V195.6z"/>
		<path class="st2" d="M644.6,195.6c0-2.4,1.2-3.7,3.7-3.7h4.1c2.4,0,3.7,1.3,3.7,3.7v49.6h23.6c2.5,0,3.7,1.2,3.7,3.7v2.5
			c0,2.5-1.2,3.7-3.7,3.7h-31.4c-2.4,0-3.7-1.2-3.7-3.7V195.6z"/>
	</g>
</g>
</svg>
